<?xml version="1.0" encoding="UTF-8" standalone="no"?>
<!DOCTYPE svg PUBLIC "-//W3C//DTD SVG 1.1//EN" "http://www.w3.org/Graphics/SVG/1.1/DTD/svg11.dtd">
<svg width="100%" height="100%" viewBox="0 0 512 512" version="1.1" xmlns="http://www.w3.org/2000/svg" xmlns:xlink="http://www.w3.org/1999/xlink" xml:space="preserve" xmlns:serif="http://www.serif.com/" style="fill-rule:evenodd;clip-rule:evenodd;stroke-linejoin:round;stroke-miterlimit:2;">
    <g id="complicated-icons" serif:id="complicated icons">
    </g>
    <g id="simple-icons" serif:id="simple icons">
        <path d="M233.373,256L94.686,117.314C88.442,111.07 88.442,100.93 94.686,94.686C100.93,88.442 111.07,88.442 117.314,94.686L256,233.373L394.686,94.686C400.93,88.442 411.07,88.442 417.314,94.686C423.558,100.93 423.558,111.07 417.314,117.314L278.627,256L417.314,394.686C423.558,400.93 423.558,411.07 417.314,417.314C411.07,423.558 400.93,423.558 394.686,417.314L256,278.627L117.314,417.314C111.07,423.558 100.93,423.558 94.686,417.314C88.442,411.07 88.442,400.93 94.686,394.686L233.373,256Z" style="fill-opacity:0.33;"/>
    </g>
</svg>
