<?xml version="1.0" encoding="UTF-8" standalone="no"?>
<!DOCTYPE svg PUBLIC "-//W3C//DTD SVG 1.1//EN" "http://www.w3.org/Graphics/SVG/1.1/DTD/svg11.dtd">
<svg width="100%" height="100%" viewBox="0 0 512 512" version="1.1" xmlns="http://www.w3.org/2000/svg" xmlns:xlink="http://www.w3.org/1999/xlink" xml:space="preserve" xmlns:serif="http://www.serif.com/" style="fill-rule:evenodd;clip-rule:evenodd;stroke-linejoin:round;stroke-miterlimit:2;">
    <g id="complicated-icons" serif:id="complicated icons">
    </g>
    <g transform="matrix(0.933594,0,0,0.933594,17,17)">
        <g id="simple-icons" serif:id="simple icons">
            <path d="M256,-17.138C406.749,-17.138 529.138,105.251 529.138,256C529.138,406.749 406.749,529.138 256,529.138C105.251,529.138 -17.138,406.749 -17.138,256C-17.138,105.251 105.251,-17.138 256,-17.138ZM256,17.138C124.169,17.138 17.138,124.169 17.138,256C17.138,387.831 124.169,494.862 256,494.862C387.831,494.862 494.862,387.831 494.862,256C494.862,124.169 387.831,17.138 256,17.138Z" style="fill-opacity:0.5;"/>
        </g>
    </g>
</svg>
