<?xml version="1.0" encoding="UTF-8" standalone="no"?>
<!DOCTYPE svg PUBLIC "-//W3C//DTD SVG 1.1//EN" "http://www.w3.org/Graphics/SVG/1.1/DTD/svg11.dtd">
<svg width="100%" height="100%" viewBox="0 0 512 512" version="1.1" xmlns="http://www.w3.org/2000/svg" xmlns:xlink="http://www.w3.org/1999/xlink" xml:space="preserve" xmlns:serif="http://www.serif.com/" style="fill-rule:evenodd;clip-rule:evenodd;stroke-linejoin:round;stroke-miterlimit:2;">
    <g id="complicated-icons" serif:id="complicated icons">
    </g>
    <g id="simple-icons" serif:id="simple icons" transform="matrix(1,0,0,1,0,25.5)">
        <g transform="matrix(0.933594,0,0,0.933594,17,-8.5)">
            <circle cx="256" cy="256" r="256" style="fill:white;"/>
        </g>
        <g transform="matrix(0.933594,0,0,0.933594,17,-8.5)">
            <path d="M256,-17.138C406.749,-17.138 529.138,105.251 529.138,256C529.138,406.749 406.749,529.138 256,529.138C105.251,529.138 -17.138,406.749 -17.138,256C-17.138,105.251 105.251,-17.138 256,-17.138ZM256,17.138C124.169,17.138 17.138,124.169 17.138,256C17.138,387.831 124.169,494.862 256,494.862C387.831,494.862 494.862,387.831 494.862,256C494.862,124.169 387.831,17.138 256,17.138Z"/>
        </g>
        <g id="simple-play" serif:id="simple play" transform="matrix(7.39034,0,0,7.39034,-2734.36,-1509.14)">
            <path d="M422.741,255.42C422.741,250.878 422.741,247.21 418.898,244.473C418.032,239.714 426.242,235.58 426.242,228.884C426.242,222.987 423.388,218.327 417.042,218.211C407.668,218.036 405.572,227.778 404.349,227.778C402.602,227.778 400.681,218.211 391.539,218.211C386.401,218.211 382.908,223.63 383.024,228.418C383.607,237.676 391.132,239.016 390.666,244.373C386.874,247.313 386.874,250.877 386.874,255.42L422.741,255.42ZM404.378,232.436C407.459,232.494 408.447,222.345 416.236,222.345C419.782,222.345 422.107,223.922 422.107,227.778C422.107,234.815 414.783,237.601 414.783,242.884C411.47,242.477 407.459,242.127 404.088,242.127C400.797,242.127 397.653,242.302 394.625,242.884C394.625,238.171 387.158,234.622 387.158,227.698C387.158,226.709 387.906,222.345 391.481,222.345C399.554,222.345 401.007,232.668 404.378,232.436ZM391.183,251.286C391.183,248.365 393.508,247.313 396.182,246.904C397.345,246.612 403.506,246.261 404.494,246.261C406.006,246.261 411.544,246.553 412.653,246.846C415.922,247.488 418.433,248.365 418.433,251.286L391.183,251.286ZM404.605,208.061C402.036,208.061 400.174,209.749 400.174,211.903C400.174,213.999 403.2,221.686 404.37,223.375C405.541,221.512 408.742,213.883 408.742,211.903C408.742,209.69 406.938,208.061 404.605,208.061ZM404.37,211.437C405.19,211.437 405.541,211.844 405.541,213.009C405.541,213.999 405.073,215.513 404.429,217.61L404.312,217.61C403.727,215.571 403.142,213.999 403.142,213.009C403.142,211.844 403.434,211.437 404.37,211.437Z" style="fill-rule:nonzero;"/>
        </g>
    </g>
</svg>
