<?xml version="1.0" encoding="UTF-8" standalone="no"?>
<!DOCTYPE svg PUBLIC "-//W3C//DTD SVG 1.1//EN" "http://www.w3.org/Graphics/SVG/1.1/DTD/svg11.dtd">
<svg width="100%" height="100%" viewBox="0 0 512 512" version="1.1" xmlns="http://www.w3.org/2000/svg" xmlns:xlink="http://www.w3.org/1999/xlink" xml:space="preserve" xmlns:serif="http://www.serif.com/" style="fill-rule:evenodd;clip-rule:evenodd;stroke-linejoin:round;stroke-miterlimit:2;">
    <g id="complicated-icons" serif:id="complicated icons">
    </g>
    <g id="simple-icons" serif:id="simple icons" transform="matrix(1,0,0,1,0,25.5)">
        <g transform="matrix(0.933594,0,0,0.933594,17,-8.5)">
            <circle cx="256" cy="256" r="256" style="fill:white;"/>
        </g>
        <g transform="matrix(0.933594,0,0,0.933594,17,-8.5)">
            <path d="M256,-17.138C406.749,-17.138 529.138,105.251 529.138,256C529.138,406.749 406.749,529.138 256,529.138C105.251,529.138 -17.138,406.749 -17.138,256C-17.138,105.251 105.251,-17.138 256,-17.138ZM256,17.138C124.169,17.138 17.138,124.169 17.138,256C17.138,387.831 124.169,494.862 256,494.862C387.831,494.862 494.862,387.831 494.862,256C494.862,124.169 387.831,17.138 256,17.138Z"/>
        </g>
        <g id="simple-learning" serif:id="simple learning" transform="matrix(0.870647,0,0,0.870647,33.1144,29.8159)">
            <g transform="matrix(1,0,0,1,0,47.7143)">
                <path d="M137.064,181.613L256,217.116L374.936,181.613C376.062,181.277 377.281,181.493 378.223,182.195C379.166,182.897 379.721,184.004 379.721,185.179L379.721,286C379.721,287.296 379.047,288.499 377.941,289.175C376.835,289.851 375.457,289.903 374.303,289.312C294.652,248.512 215.791,248.458 137.725,289.297C136.571,289.901 135.186,289.858 134.073,289.183C132.959,288.509 132.279,287.302 132.279,286L132.279,185.179C132.279,184.004 132.834,182.897 133.777,182.195C134.719,181.493 135.938,181.277 137.064,181.613Z"/>
            </g>
            <g transform="matrix(1.14857,0,0,1.14857,-38.0343,-63.5343)">
                <path d="M255.073,250.833L80.073,198.595C78.701,198.185 77.76,196.923 77.76,195.49C77.76,194.058 78.701,192.795 80.073,192.385L255.073,140.147C255.678,139.966 256.322,139.966 256.927,140.147L431.927,192.385C433.299,192.795 434.24,194.058 434.24,195.49C434.24,196.923 433.299,198.185 431.927,198.595L256.927,250.833C256.322,251.014 255.678,251.014 255.073,250.833Z"/>
            </g>
        </g>
    </g>
</svg>
