<?xml version="1.0" encoding="UTF-8" standalone="no"?>
<!DOCTYPE svg PUBLIC "-//W3C//DTD SVG 1.1//EN" "http://www.w3.org/Graphics/SVG/1.1/DTD/svg11.dtd">
<svg width="100%" height="100%" viewBox="0 0 512 512" version="1.1" xmlns="http://www.w3.org/2000/svg" xmlns:xlink="http://www.w3.org/1999/xlink" xml:space="preserve" xmlns:serif="http://www.serif.com/" style="fill-rule:evenodd;clip-rule:evenodd;stroke-linejoin:round;stroke-miterlimit:2;">
    <g id="complicated-icons" serif:id="complicated icons">
    </g>
    <g id="simple-icons" serif:id="simple icons" transform="matrix(1,0,0,1,0,25.5)">
        <g transform="matrix(0.933594,0,0,0.933594,17,-8.5)">
            <circle cx="256" cy="256" r="256" style="fill:white;"/>
        </g>
        <g transform="matrix(0.933594,0,0,0.933594,17,-8.5)">
            <path d="M256,-17.138C406.749,-17.138 529.138,105.251 529.138,256C529.138,406.749 406.749,529.138 256,529.138C105.251,529.138 -17.138,406.749 -17.138,256C-17.138,105.251 105.251,-17.138 256,-17.138ZM256,17.138C124.169,17.138 17.138,124.169 17.138,256C17.138,387.831 124.169,494.862 256,494.862C387.831,494.862 494.862,387.831 494.862,256C494.862,124.169 387.831,17.138 256,17.138Z"/>
        </g>
        <g transform="matrix(6.91354,0,0,6.91354,-896.388,-1380.28)">
            <path d="M191.998,243.889L177.585,243.889L177.585,258.296C177.585,259.574 176.549,260.611 175.271,260.611L158.1,260.611C156.822,260.611 155.786,259.574 155.786,258.296C155.786,258.296 155.786,243.889 155.786,243.889L141.373,243.889C140.095,243.889 139.059,242.853 139.059,241.575L139.059,224.404C139.059,223.126 140.095,222.09 141.373,222.09L155.786,222.09L155.786,207.682C155.786,206.404 156.822,205.368 158.1,205.368L175.271,205.368C176.549,205.368 177.585,206.404 177.585,207.682C177.585,207.682 177.585,222.09 177.585,222.09L191.998,222.09C193.276,222.09 194.312,223.126 194.312,224.404L194.312,241.575C194.312,242.853 193.276,243.889 191.998,243.889Z"/>
        </g>
    </g>
</svg>
