<?xml version="1.0" encoding="UTF-8" standalone="no"?>
<!DOCTYPE svg PUBLIC "-//W3C//DTD SVG 1.1//EN" "http://www.w3.org/Graphics/SVG/1.1/DTD/svg11.dtd">
<svg width="100%" height="100%" viewBox="0 0 512 512" version="1.1" xmlns="http://www.w3.org/2000/svg" xmlns:xlink="http://www.w3.org/1999/xlink" xml:space="preserve" xmlns:serif="http://www.serif.com/" style="fill-rule:evenodd;clip-rule:evenodd;stroke-linejoin:round;stroke-miterlimit:2;">
    <g id="complicated-icons" serif:id="complicated icons">
    </g>
    <g id="simple-icons" serif:id="simple icons" transform="matrix(1,0,0,1,0,25.5)">
        <g transform="matrix(0.933594,0,0,0.933594,17,-8.5)">
            <circle cx="256" cy="256" r="256" style="fill:yellow;"/>
        </g>
        <g transform="matrix(0.933594,0,0,0.933594,17,-8.5)">
            <path d="M256,-17.138C406.749,-17.138 529.138,105.251 529.138,256C529.138,406.749 406.749,529.138 256,529.138C105.251,529.138 -17.138,406.749 -17.138,256C-17.138,105.251 105.251,-17.138 256,-17.138ZM256,17.138C124.169,17.138 17.138,124.169 17.138,256C17.138,387.831 124.169,494.862 256,494.862C387.831,494.862 494.862,387.831 494.862,256C494.862,124.169 387.831,17.138 256,17.138Z"/>
        </g>
        <g id="simple-hobby" serif:id="simple hobby" transform="matrix(7.16501,0,0,7.16501,-895.634,-1477.45)">
            <path d="M175.84,253.982L171.369,252.273C170.21,252.862 168.653,253.431 166.697,253.982C164.799,253.678 162.662,253.184 160.289,252.501C159.453,253.488 158.532,253.982 157.526,253.982C156.69,253.982 155.931,253.697 155.247,253.127C154.507,253.697 153.776,253.982 153.054,253.982C152.313,253.982 151.649,253.754 151.06,253.298C150.472,252.843 149.949,252.169 149.494,251.276C147.937,251.048 146.826,250.45 146.161,249.482L142.572,251.703L136.306,253.982L141.12,249.282L145.848,246.377C146.285,245.497 147.12,244.894 148.354,244.569C147.538,244.53 146.626,244.31 145.62,243.907L148.639,234.91L154.136,228.794L166.84,230.558L168.378,232.321L183.616,222.765C184.642,223.125 185.154,223.769 185.154,224.699C185.154,224.831 185.145,225.002 185.126,225.211L170.172,234.512L171.454,236.303C173.372,238.958 174.63,240.565 175.228,241.125C175.826,241.684 176.847,242.21 178.29,242.703C178.347,243.598 178.375,244.264 178.375,244.702C178.375,248.319 177.53,251.412 175.84,253.982ZM175.214,252.159C176.334,249.665 176.894,247.161 176.894,244.648L176.894,243.677C174.938,242.88 173.087,241.182 171.34,238.582C170.884,237.899 170.581,237.453 170.429,237.244L168.919,235.28L162.567,239.29L162.51,241.628L162.539,244.051C159.615,244.453 156.757,245.181 153.965,246.235C152.921,246.026 152.019,245.921 151.26,245.921C148.544,245.921 147.186,246.595 147.186,247.944C147.186,249.33 148.411,250.023 150.861,250.023C151.734,250.023 152.864,249.861 154.25,249.539C160.232,251.077 164.4,251.998 166.754,252.301C167.343,252.112 167.78,251.969 168.065,251.874C169.622,251.381 170.723,251.01 171.369,250.763L175.214,252.159ZM167.153,233.033L166.185,231.866L154.678,230.359L149.921,235.621L147.528,243.016C147.87,243.073 148.145,243.101 148.354,243.101C150.025,243.101 151.402,241.442 152.484,238.124L153.424,237.441C154.602,236.588 155.76,235.611 156.899,234.512C158.114,235.289 159.491,236.076 161.029,236.873L167.153,233.033ZM159.691,237.754C159.368,237.584 159.121,237.46 158.95,237.384C158.266,237.062 157.678,236.73 157.184,236.389C156.292,237.337 155.124,238.238 153.681,239.091C153.32,240.286 152.769,241.404 152.029,242.447L159.691,237.754ZM161.144,240.115L153.823,244.741C157.032,243.727 159.463,243.076 161.115,242.789L161.115,240.854L161.144,240.115ZM154.991,251.134L154.279,250.934C152.855,251.219 151.801,251.362 151.117,251.362C151.44,251.741 151.758,252.026 152.071,252.216C152.385,252.406 152.693,252.501 152.997,252.501C153.833,252.501 154.497,252.045 154.991,251.134ZM158.694,252.102L155.988,251.39C156.121,252.15 156.595,252.529 157.412,252.529C157.906,252.529 158.333,252.387 158.694,252.102Z" style="fill-rule:nonzero;"/>
        </g>
    </g>
</svg>
