<?xml version="1.0" encoding="UTF-8" standalone="no"?>
<!DOCTYPE svg PUBLIC "-//W3C//DTD SVG 1.1//EN" "http://www.w3.org/Graphics/SVG/1.1/DTD/svg11.dtd">
<svg width="100%" height="100%" viewBox="0 0 512 512" version="1.1" xmlns="http://www.w3.org/2000/svg" xmlns:xlink="http://www.w3.org/1999/xlink" xml:space="preserve" xmlns:serif="http://www.serif.com/" style="fill-rule:evenodd;clip-rule:evenodd;stroke-linejoin:round;stroke-miterlimit:2;">
    <g id="complicated-icons" serif:id="complicated icons">
    </g>
    <g id="simple-icons" serif:id="simple icons" transform="matrix(1,0,0,1,0,25.5)">
        <g transform="matrix(0.933594,0,0,0.933594,17,-8.5)">
            <circle cx="256" cy="256" r="256" style="fill:yellow;"/>
        </g>
        <g transform="matrix(0.933594,0,0,0.933594,17,-8.5)">
            <path d="M256,-17.138C406.749,-17.138 529.138,105.251 529.138,256C529.138,406.749 406.749,529.138 256,529.138C105.251,529.138 -17.138,406.749 -17.138,256C-17.138,105.251 105.251,-17.138 256,-17.138ZM256,17.138C124.169,17.138 17.138,124.169 17.138,256C17.138,387.831 124.169,494.862 256,494.862C387.831,494.862 494.862,387.831 494.862,256C494.862,124.169 387.831,17.138 256,17.138Z"/>
        </g>
        <g id="simple-programming" serif:id="simple programming" transform="matrix(6.67041,0,0,6.67041,-2429.65,-1345.68)">
            <path d="M421.606,213.268L421.606,240.669L383.638,240.669L383.638,213.268L421.606,213.268ZM421.606,242.065L423.628,246.28C424.616,248.312 425.11,250.277 425.11,252.176L425.11,255.423L380.135,255.423L380.135,252.176C380.135,250.296 380.628,248.331 381.616,246.28L383.638,242.065L421.606,242.065ZM420.21,214.664L385.034,214.664L385.034,239.274L420.21,239.274L420.21,214.664ZM420.685,243.461L384.448,243.461L382.664,247.316C381.908,248.953 381.53,250.277 381.53,251.286L381.53,254.028L423.714,254.028L423.714,252.971C423.714,251.067 423.28,249.163 422.412,247.259L420.685,243.461ZM387.825,220.394L387.825,233.515C387.825,234.828 387.992,235.646 388.325,235.969C388.657,236.292 389.49,236.454 390.822,236.454L414.337,236.454C415.707,236.454 416.563,236.297 416.906,235.983C417.248,235.669 417.419,234.875 417.419,233.601L417.419,220.337C417.419,219.062 417.243,218.264 416.891,217.94C416.539,217.617 415.688,217.455 414.337,217.455L390.822,217.455C389.49,217.455 388.657,217.612 388.325,217.926C387.992,218.24 387.825,219.062 387.825,220.394ZM386.629,245.226L390.132,245.226L390.132,246.622L393.721,246.622L393.721,245.226L397.168,245.226L397.168,246.622L400.728,246.622L400.728,245.226L404.203,245.226L404.203,246.622L407.763,246.622L407.763,245.226L411.238,245.226L411.238,246.622L414.77,246.622L414.77,245.226L418.274,245.226L418.274,246.622L414.799,246.622L414.799,248.075L418.274,248.075L418.274,249.414L414.77,249.414L414.77,248.075L411.238,248.075L411.238,249.414L407.763,249.414L407.763,248.075L404.174,248.075L404.174,249.414L400.728,249.414L400.728,248.075L397.168,248.075L397.168,249.414L393.721,249.414L393.721,248.075L390.132,248.075L390.132,249.414L386.629,249.414L386.629,248.018L390.104,248.018L390.104,246.622L386.629,246.622L386.629,245.226ZM393.664,248.018L397.168,248.018L397.168,246.679L393.664,246.679L393.664,248.018ZM400.728,248.018L404.203,248.018L404.203,246.679L400.728,246.679L400.728,248.018ZM407.763,248.018L411.238,248.018L411.238,246.679L407.763,246.679L407.763,248.018ZM386.43,233.548L386.43,220.389C386.43,218.452 386.667,217.247 387.143,216.772C387.619,216.297 388.845,216.06 390.823,216.06L414.421,216.06C416.399,216.06 417.626,216.297 418.101,216.772C418.577,217.247 418.815,218.452 418.815,220.389L418.815,233.548C418.815,235.466 418.572,236.663 418.087,237.137C417.602,237.612 416.38,237.849 414.421,237.849L390.823,237.849C388.864,237.849 387.642,237.612 387.157,237.137C386.672,236.663 386.43,235.466 386.43,233.548Z" style="fill-rule:nonzero;"/>
        </g>
    </g>
</svg>
