<?xml version="1.0" encoding="UTF-8" standalone="no"?>
<!DOCTYPE svg PUBLIC "-//W3C//DTD SVG 1.1//EN" "http://www.w3.org/Graphics/SVG/1.1/DTD/svg11.dtd">
<svg width="100%" height="100%" viewBox="0 0 512 512" version="1.1" xmlns="http://www.w3.org/2000/svg" xmlns:xlink="http://www.w3.org/1999/xlink" xml:space="preserve" xmlns:serif="http://www.serif.com/" style="fill-rule:evenodd;clip-rule:evenodd;stroke-linejoin:round;stroke-miterlimit:2;">
    <g id="complicated-icons" serif:id="complicated icons">
    </g>
    <g id="simple-icons" serif:id="simple icons" transform="matrix(1,0,0,1,0,25.5)">
        <g transform="matrix(0.933594,0,0,0.933594,17,-8.5)">
            <circle cx="256" cy="256" r="256" style="fill:yellow;"/>
        </g>
        <g transform="matrix(0.933594,0,0,0.933594,17,-8.5)">
            <path d="M256,-17.138C406.749,-17.138 529.138,105.251 529.138,256C529.138,406.749 406.749,529.138 256,529.138C105.251,529.138 -17.138,406.749 -17.138,256C-17.138,105.251 105.251,-17.138 256,-17.138ZM256,17.138C124.169,17.138 17.138,124.169 17.138,256C17.138,387.831 124.169,494.862 256,494.862C387.831,494.862 494.862,387.831 494.862,256C494.862,124.169 387.831,17.138 256,17.138Z"/>
        </g>
        <g transform="matrix(6.91354,0,0,6.91354,-896.388,-1380.28)">
            <path d="M190.552,240.997L174.692,240.997L174.692,256.85C174.692,258.128 173.656,259.164 172.378,259.164L160.993,259.164C159.715,259.164 158.679,258.128 158.679,256.85C158.679,256.85 158.679,240.997 158.679,240.997L142.819,240.997C141.541,240.997 140.505,239.96 140.505,238.682L140.505,227.297C140.505,226.019 141.541,224.983 142.819,224.983L158.679,224.983L158.679,209.128C158.679,207.85 159.715,206.814 160.993,206.814L172.378,206.814C173.656,206.814 174.692,207.85 174.692,209.128C174.692,209.128 174.692,224.983 174.692,224.983L190.552,224.983C191.83,224.983 192.866,226.019 192.866,227.297L192.866,238.682C192.866,239.96 191.83,240.997 190.552,240.997Z"/>
        </g>
    </g>
</svg>
