<?xml version="1.0" encoding="UTF-8" standalone="no"?>
<!DOCTYPE svg PUBLIC "-//W3C//DTD SVG 1.1//EN" "http://www.w3.org/Graphics/SVG/1.1/DTD/svg11.dtd">
<svg width="100%" height="100%" viewBox="0 0 512 512" version="1.1" xmlns="http://www.w3.org/2000/svg" xmlns:xlink="http://www.w3.org/1999/xlink" xml:space="preserve" xmlns:serif="http://www.serif.com/" style="fill-rule:evenodd;clip-rule:evenodd;stroke-linejoin:round;stroke-miterlimit:2;">
    <g id="complicated-icons" serif:id="complicated icons">
    </g>
    <g id="simple-icons" serif:id="simple icons" transform="matrix(1,0,0,1,0,25.5)">
        <g transform="matrix(0.933594,0,0,0.933594,17,-8.5)">
            <circle cx="256" cy="256" r="256" style="fill:yellow;"/>
        </g>
        <g transform="matrix(0.933594,0,0,0.933594,17,-8.5)">
            <path d="M256,-17.138C406.749,-17.138 529.138,105.251 529.138,256C529.138,406.749 406.749,529.138 256,529.138C105.251,529.138 -17.138,406.749 -17.138,256C-17.138,105.251 105.251,-17.138 256,-17.138ZM256,17.138C124.169,17.138 17.138,124.169 17.138,256C17.138,387.831 124.169,494.862 256,494.862C387.831,494.862 494.862,387.831 494.862,256C494.862,124.169 387.831,17.138 256,17.138Z"/>
        </g>
        <g transform="matrix(1,0,0,1,0,-25.5)">
            <g id="simple-home" serif:id="simple home">
                <path d="M255.502,55.676C259.229,55.559 263.012,56.734 266.123,59.275C266.123,59.275 407.73,174.968 436.106,197.778C437.971,199.278 439.628,200.587 440.169,201.014C445.065,204.445 447.834,210.493 446.779,216.776C445.772,222.78 442.426,226.867 436.764,229.055C435.839,229.412 429.69,232.555 421.994,227.36C421.607,227.099 419.506,225.491 416.057,222.719C414.736,221.657 413.17,220.394 411.384,218.951L411.384,380.334C411.384,389.171 404.221,396.334 395.384,396.334L116.616,396.334C107.779,396.334 100.616,389.171 100.616,380.334L100.616,218.147C98.412,219.928 96.509,221.464 94.947,222.719C91.499,225.491 89.398,227.099 89.011,227.36C81.315,232.555 75.165,229.412 74.241,229.055C68.578,226.867 65.233,222.78 64.225,216.776C63.171,210.493 65.94,204.445 70.835,201.014C71.377,200.587 73.033,199.278 74.899,197.778C103.275,174.968 244.882,59.275 244.882,59.275C247.993,56.734 251.776,55.559 255.502,55.676ZM132.616,192.158L132.616,364.334C132.616,364.334 379.384,364.334 379.384,364.334L379.384,192.968C338.384,159.6 278.618,110.799 255.502,91.919C232.573,110.647 173.582,158.815 132.616,192.158Z"/>
            </g>
        </g>
    </g>
</svg>
